PathFileType	4	(X/Y/Z)	C:/Users/opensim2020/Desktop/walking_exp_matlab/subject02_walking07_straight_02.trc																																																																																																																																																				
DataRate	CameraRate	NumFrames	NumMarkers	Units	OrigDataRate	OrigDataStartFrame	OrigNumFrames																																																																																																																																																
100	100	4	50	mm	100	1383	210																																																																																																																																																
Frame#	Time	LFHD			RFHD			LBHD			RBHD			C7			T10			CLAV			STRN			RBAK			LSHO			LUPA			LELB			LFRM			LWRA			LWRB			LFIN			RSHO			RUPA			RELB			RFRM			RWRA			RWRB			RFIN			LASI			RASI			LPSI			RPSI			LTHI			LKNE			LTIB			LANK			LHEE			LTOE			RTHI			RKNE			RTIB			RANK			RHEE			RTOE			*39			*40			*41			*42			*43			*44			*45			*46			*47			*48			*49		
		X1	Y1	Z1	X2	Y2	Z2	X3	Y3	Z3	X4	Y4	Z4	X5	Y5	Z5	X6	Y6	Z6	X7	Y7	Z7	X8	Y8	Z8	X9	Y9	Z9	X10	Y10	Z10	X11	Y11	Z11	X12	Y12	Z12	X13	Y13	Z13	X14	Y14	Z14	X15	Y15	Z15	X16	Y16	Z16	X17	Y17	Z17	X18	Y18	Z18	X19	Y19	Z19	X20	Y20	Z20	X21	Y21	Z21	X22	Y22	Z22	X23	Y23	Z23	X24	Y24	Z24	X25	Y25	Z25	X26	Y26	Z26	X27	Y27	Z27	X28	Y28	Z28	X29	Y29	Z29	X30	Y30	Z30	X31	Y31	Z31	X32	Y32	Z32	X33	Y33	Z33	X34	Y34	Z34	X35	Y35	Z35	X36	Y36	Z36	X37	Y37	Z37	X38	Y38	Z38	X39	Y39	Z39	X40	Y40	Z40	X41	Y41	Z41	X42	Y42	Z42	X43	Y43	Z43	X44	Y44	Z44	X45	Y45	Z45	X46	Y46	Z46	X47	Y47	Z47	X48	Y48	Z48	X49	Y49	Z49	X50	Y50	Z50
																																																																																																																																																							
53	0.52	-285.21469	1749.25037	890.75024	-298.25763	1731.86243	1033.22803	-414.97153	1675.30054	871.12683	-440.29968	1656.53186	1011.46063	-474.4371	1532.93018	937.44562	-522.82758	1256.73987	945.72571	-334.60565	1466.55737	940.45563	-281.20801	1295.09045	955.02679	-537.02094	1357.73218	995.62421	-384.02338	1509.14111	765.53253	-344.00162	1314.78967	678.89246	-296.65738	1179.25623	665.01782	-218.09314	1069.87561	670.51575	-112.21679	998.7439	724.07019	-145.53259	972.42572	686.92303	-92.47878	933.58679	690.58453	-416.83673	1500.14453	1130.02148	-466.02417	1312.93201	1210.09216	-457.48727	1167.62976	1234.34705	-431.35587	1050.08167	1259.16553	-384.21774	921.95459	1245.07739	-431.72794	920.67035	1276.47278	-396.61032	856.21082	1279.81726	-295.86166	991.75317	823.00397	-296.30231	986.42657	1077.97705	-504.12054	1041.15356	904.30743	-509.20663	1042.57117	1019.89001	-372.82626	679.16577	790.81232	-418.65012	479.7995	829.35687	-483.08325	294.99774	838.23639	-486.36346	72.63439	887.45135	-524.57623	46.71445	937.94751	-329.31866	35.03179	887.53015	-320.27475	692.58856	1177.47839	-270.02063	493.28772	1163.60852	-352.29495	326.05264	1157.38208	-405.052	141.31616	1119.17627	-431.31155	90.56425	1054.08972	-282.96631	54.5199	1173.07275	-394.06351	1816.44849	970.73059	-2845.20508	1033.99658	3360.177	NaN	NaN	NaN	NaN	NaN	NaN	NaN	NaN	NaN	NaN	NaN	NaN	NaN	NaN	NaN	NaN	NaN	NaN	NaN	NaN	NaN	NaN	NaN	NaN	NaN	NaN	NaN
54	0.53	-276.11566	1748.66443	891.1568	-289.09833	1730.94434	1033.71143	-405.78366	1675.11182	871.32867	-431.19525	1655.81641	1011.76331	-465.55353	1532.49268	937.45789	-514.5412	1256.33936	946.59448	-326.09119	1465.70764	940.44635	-272.69534	1294.19373	954.56354	-528.45978	1357.19897	995.6452	-375.00015	1508.86487	765.63605	-332.79077	1315.30969	678.83478	-282.56244	1180.81982	664.61285	-201.93602	1073.12463	670.73138	-95.07022	1004.12195	724.7547	-127.85075	977.10236	687.41742	-73.87469	939.60706	691.32599	-408.19006	1499.19958	1130.09399	-459.31564	1312.36938	1209.26514	-451.98547	1166.80994	1233.31885	-427.30991	1049.39868	1259.005	-380.83453	920.96527	1245.99817	-429.21008	919.91925	1276.03687	-394.47372	855.30792	1280.61084	-288.67923	990.76959	822.34125	-287.26105	985.70453	1077.7019	-496.56577	1040.38879	905.71442	-500.77173	1041.87134	1021.04156	-368.03436	678.55774	791.19354	-414.87543	479.45273	829.95868	-480.81625	295.26376	838.70599	-485.97513	72.90833	887.90088	-524.05176	46.92215	938.70862	-329.05457	34.91084	887.36554	-309.36923	692.58514	1177.43762	-257.29858	492.91849	1162.26819	-332.19849	321.94153	1157.6311	-376.72296	134.74202	1121.05725	-400.90863	82.51871	1056.18396	-249.84354	53.73969	1173.69275	-384.60022	1815.76892	971.50391	-2845.80664	1033.98865	3357.65503	NaN	NaN	NaN	NaN	NaN	NaN	NaN	NaN	NaN	NaN	NaN	NaN	NaN	NaN	NaN	NaN	NaN	NaN	NaN	NaN	NaN	NaN	NaN	NaN	NaN	NaN	NaN
55	0.54	-266.53964	1747.70605	891.95483	-279.81851	1729.81763	1034.29431	-396.63995	1674.62109	871.82166	-422.04025	1655.01636	1012.13403	-456.61838	1531.93091	937.61267	-506.14435	1255.85791	947.45892	-317.01886	1464.97852	940.52643	-264.22549	1293.25635	954.24817	-519.87921	1356.63049	995.91095	-365.95502	1508.46826	765.86969	-321.51901	1315.88025	678.83405	-268.82745	1182.3562	664.29102	-186.44582	1076.39746	670.61255	-78.3103	1009.28027	725.51813	-110.20633	981.43335	687.93018	-55.53596	945.28137	692.23761	-399.63358	1498.44458	1130.24487	-452.47205	1311.72253	1208.61658	-446.20526	1166.07251	1232.43176	-423.03271	1048.68127	1258.86963	-377.22235	919.71417	1246.98938	-426.21338	919.34192	1276.15796	-392.0481	854.33234	1281.47192	-281.89175	989.61249	821.72614	-278.28671	984.92297	1077.56616	-488.97134	1039.4939	907.10522	-492.34601	1040.94641	1022.13739	-362.93851	677.98065	791.65796	-410.87607	479.08804	830.71912	-478.4158	295.46686	839.2309	-485.5787	73.22016	888.33978	-524.1015	47.50958	939.05865	-328.79315	34.82345	887.21405	-298.68903	692.32715	1177.39551	-244.97916	492.35175	1161.03357	-312.19437	317.83917	1157.90527	-348.08011	128.65134	1123.09937	-370.46414	75.35693	1058.2334	-217.15817	53.32619	1174.39661	-375.12695	1814.97827	972.2157	-2845.10425	1033.95374	3360.23218	NaN	NaN	NaN	NaN	NaN	NaN	NaN	NaN	NaN	NaN	NaN	NaN	NaN	NaN	NaN	NaN	NaN	NaN	NaN	NaN	NaN	NaN	NaN	NaN	NaN	NaN	NaN
56	0.55	-257.43945	1746.96082	892.52057	-270.57477	1728.63025	1034.97974	-387.23492	1673.73584	872.4873	-412.8909	1654.1322	1012.64276	-447.68936	1531.27771	937.85046	-497.72577	1255.28528	948.28119	-308.24274	1464.05188	940.6947	-255.69131	1292.16992	954.01306	-511.33545	1356.02881	996.27954	-356.98468	1507.97144	766.16589	-309.93637	1316.354	678.80176	-255.29868	1183.73718	664.14917	-171.15753	1078.9364	670.90417	-62.21214	1014.07788	726.35754	-93.03574	985.66711	688.58423	-37.82403	950.58752	693.10236	-390.96436	1497.63501	1130.75281	-445.35544	1311.09802	1208.44653	-440.39908	1165.63721	1231.97815	-418.47192	1047.95911	1258.79517	-373.41089	918.67456	1248.11572	-423.23233	918.60785	1275.90039	-389.63318	853.5531	1282.28418	-274.30099	988.79028	821.88116	-269.33548	984.15002	1077.64966	-481.34256	1038.56226	908.43372	-484.0741	1039.89575	1023.16223	-357.68835	677.49646	792.12225	-407.28622	478.84863	831.17914	-476.22263	295.77405	839.8244	-485.26428	73.59573	888.77747	-523.36298	47.86947	939.34894	-328.58679	34.77859	887.07196	-288.36328	691.7533	1177.09558	-233.175	491.44812	1159.55493	-292.45428	313.97964	1158.22083	-319.65283	123.06263	1124.85571	-340.03632	68.81707	1060.33447	-184.85181	53.40026	1175.13782	-365.70941	1814.21094	973.10333	-2845.18164	1034.06506	3360.15869	NaN	NaN	NaN	NaN	NaN	NaN	NaN	NaN	NaN	NaN	NaN	NaN	NaN	NaN	NaN	NaN	NaN	NaN	NaN	NaN	NaN	NaN	NaN	NaN	NaN	NaN	NaN
